<?xml version="1.0" encoding="UTF-8"?>
<!DOCTYPE svg PUBLIC "-//W3C//DTD SVG 1.1//EN" "http://www.w3.org/Graphics/SVG/1.1/DTD/svg11.dtd">
<!-- Creator: CorelDRAW 2021 (64-Bit) -->
<svg xmlns="http://www.w3.org/2000/svg" xml:space="preserve" width="71.7142mm" height="75.4559mm" version="1.1" style="shape-rendering:geometricPrecision; text-rendering:geometricPrecision; image-rendering:optimizeQuality; fill-rule:evenodd; clip-rule:evenodd"
viewBox="0 0 301.2 316.91"
 xmlns:xlink="http://www.w3.org/1999/xlink"
 xmlns:xodm="http://www.corel.com/coreldraw/odm/2003">
 <defs>
  <style type="text/css">
   <![CDATA[
    .fil0 {fill:blue}
   ]]>
  </style>
 </defs>
 <g id="Layer_x0020_1">
  <metadata id="CorelCorpID_0Corel-Layer"/>
  <path class="fil0" d="M127.05 105.49c-44.58,36.92 -63.8,53.13 -108.01,90.33 -3.83,3.12 -7.21,5.6 -7.5,10.32l-0.1 45.62c0.18,4.27 6.61,6.78 10.85,4.84 3.1,-1.42 5.81,-4.44 8.32,-6.52 35.71,-30.26 46.67,-39.5 82.23,-69.89 2.56,-2.27 5.11,-5.13 8.18,-6.88 2.57,-1.46 4.36,0.61 4.44,2.74l-0.04 126.14c0.01,10.87 5.92,14.73 17.8,14.74l8.13 -0.01 8.02 0.01c17.17,-0.01 18.03,-6.53 18.02,-19.12l-0.05 -122.32c0.01,-1.78 1.72,-2.24 3.62,-2.65 0.94,0.1 1.82,0.96 2.49,1.5l91.5 80.18c1.25,1.08 2.52,2.32 4.11,3.03 3.66,1.64 9.63,-0.65 10.13,-4.25 0.45,-3.26 0.2,-6.72 0.2,-10.02l-0.01 -31.09c-0.02,-9.08 0.19,-9.24 -7.94,-16.06l-62.47 -55.43c-14.23,-11.75 -79.14,-5.36 -42.69,-35.25l105.2 -85.89 16.87 -14.38c1.01,-0.87 1.82,-1.86 2.83,-2.72l-64.11 0.13c-3.71,0.03 -4.56,0.33 -7.39,2.57 -22.41,18.45 -30.79,25.54 -53.49,43.69 -17.24,13.79 -32.93,13.49 -52.93,-3.64l-46.14 -37.71c-8.41,-6.97 -8.13,-7.49 -20.69,-7.5l-56.45 0.05c1.16,0.98 0.47,0.34 1.17,1.34 1.31,1.66 3.59,3.27 5.25,4.71l75.56 62.87c12.43,11.09 78.63,8.72 45.06,36.53z"/>
 </g>
</svg>
